<svg width="245" height="27" viewBox="0 0 245 27" fill="none" xmlns="http://www.w3.org/2000/svg">
<g clip-path="url(#clip0_682_10916)">
<path d="M235.203 3.69472V2.93683H239.045V3.69472H237.604V7.57893H236.644V3.69472H235.203ZM240.677 4.16841V7.57893H239.717V2.93683H241.158L242.406 6.44209L243.559 2.93683H244.999V7.57893H244.039V4.16841L242.79 7.57893H241.83L240.677 4.16841Z" fill="white"/>
<path d="M28.045 8.52629C28.045 4.54735 32.3668 2.46313 36.2085 2.46313C40.5303 2.46313 43.8917 4.35787 44.7561 8.90524H41.1065C40.5303 6.34735 38.1293 5.58945 36.1124 5.58945C34.4797 5.58945 31.9827 6.25261 31.9827 8.43156C31.9827 10.0421 33.4233 10.8947 35.152 11.2737L37.7451 11.7473C41.4907 12.4105 45.2363 13.8316 45.2363 18.1895C45.2363 22.5473 40.8184 24.7263 36.5926 24.7263C31.4064 24.7263 27.949 21.8842 27.4688 17.2421H31.2143C31.8866 20.1789 33.8074 21.6947 36.7847 21.6947C39.3778 21.6947 41.3947 20.5579 41.3947 18.3789C41.3947 16.2947 38.9936 15.4421 36.8807 15.0631L34.2876 14.5894C30.8302 13.9263 28.045 12.1263 28.045 8.52629Z" fill="white"/>
<path d="M51.671 4.1684V8.33682H54.8403V10.8947H51.671V19.5158C51.671 21.1263 52.0551 21.5052 53.5918 21.5052H54.9364V24.1579H52.3433C48.8858 24.1579 48.2135 23.2105 48.2135 19.9894V10.7052H45.8125V8.43155H48.2135V4.1684H51.671Z" fill="white"/>
<path d="M62.3298 24.6316C58.5842 24.6316 56.8555 22.1684 56.8555 18.2842V8.43158H60.409V17.5263C60.409 19.6105 60.7931 21.6947 63.3862 21.6947C65.9793 21.6947 67.0358 19.6105 67.0358 16.7684V8.43158H70.5893V24.3474H67.0358V22.1684C66.0754 23.6842 64.4427 24.6316 62.3298 24.6316Z" fill="white"/>
<path d="M88.2611 2.8421V24.2526H84.7075V22.2632C83.7471 23.7789 82.1144 24.7263 79.9055 24.7263C76.1599 24.7263 72.8945 21.4105 72.8945 16.3895C72.8945 11.3684 76.0639 8.05263 79.9055 8.05263C82.0184 8.05263 83.6511 9 84.7075 10.5158V2.8421H88.2611ZM76.6401 16.4842C76.6401 19.8947 78.2728 21.9789 80.6738 21.9789C83.0749 21.9789 84.8036 20.1789 84.8036 16.4842C84.8036 12.7895 82.9788 10.9895 80.6738 10.9895C78.3689 10.9895 76.6401 13.0737 76.6401 16.4842Z" fill="white"/>
<path d="M95.2723 6.34735H91.7188V2.93683H95.2723V6.34735ZM95.2723 24.2526H91.7188V8.43156H95.2723V24.2526Z" fill="white"/>
<path d="M105.643 24.6316C101.706 24.6316 97.6719 22.0737 97.6719 16.2947C97.6719 10.5158 101.706 7.95789 105.643 7.95789C109.581 7.95789 113.615 10.5158 113.615 16.2947C113.615 22.0737 109.581 24.6316 105.643 24.6316ZM109.869 16.2947C109.869 12.6947 107.852 10.8 105.547 10.8C103.242 10.8 101.225 12.6 101.225 16.2947C101.225 19.9895 103.242 21.7895 105.547 21.7895C107.852 21.6947 109.869 19.9895 109.869 16.2947Z" fill="white"/>
<path d="M134.267 13.5474C134.267 21.979 129.08 24.3474 122.165 24.3474H116.211V2.74738H122.165C128.984 2.74738 134.267 5.1158 134.267 13.5474ZM119.957 5.77895V21.2211H121.877C126.007 21.2211 130.329 20.2737 130.329 13.5474C130.329 6.72632 126.199 5.87369 121.877 5.87369L119.957 5.77895Z" fill="white"/>
<path d="M140.507 6.34735H136.953V2.93683H140.507V6.34735ZM140.507 24.2526H136.953V8.43156H140.507V24.2526Z" fill="white"/>
<path d="M151.072 11.7474C148.863 11.7474 147.518 12.6947 147.518 15.8211V24.1579H143.965V8.43159H147.518V11.2737C148.383 9.47369 149.919 8.43159 151.936 8.33685C152.224 8.33685 152.609 8.33685 152.897 8.43159V11.9369C152.128 11.8421 151.552 11.7474 151.072 11.7474Z" fill="white"/>
<path d="M160.966 21.6947C162.887 21.6947 164.327 21.0316 164.904 19.5158H168.457C167.785 22.0737 165.288 24.6316 161.062 24.6316C155.876 24.6316 152.898 20.7473 152.898 16.2C152.898 11.6526 156.26 8.05261 160.87 8.05261C165.864 8.05261 168.937 12.0316 168.553 17.4316H156.548C156.74 20.2737 158.949 21.6947 160.966 21.6947ZM165 14.6842C164.904 12.221 162.983 10.7052 160.87 10.7052C159.237 10.7052 156.836 11.6526 156.548 14.6842H165Z" fill="white"/>
<path d="M181.708 13.7368C181.323 12.1263 179.883 10.8 177.962 10.8C175.753 10.8 173.64 12.4105 173.64 16.2C173.64 19.9895 175.657 21.6 177.77 21.6C179.595 21.6 181.323 20.7474 181.708 18.6632H185.165C184.493 22.3579 181.131 24.5368 177.674 24.5368C173.064 24.5368 169.895 20.9368 169.895 16.2C169.895 11.4632 172.968 7.86316 177.866 7.86316C181.419 7.86316 184.493 10.0421 185.069 13.7368H181.708Z" fill="white"/>
<path d="M191.507 4.1684V8.33682H194.676V10.8947H191.507V19.5158C191.507 21.1263 191.891 21.5052 193.428 21.5052H194.772V24.1579H192.179C188.722 24.1579 188.049 23.2105 188.049 19.9894V10.7052H185.648V8.43155H188.049V4.1684H191.507Z" fill="white"/>
<path d="M200.628 6.34735H197.074V2.93683H200.628V6.34735ZM200.628 24.2526H197.074V8.43156H200.628V24.2526Z" fill="white"/>
<path d="M210.905 24.6316C206.967 24.6316 202.934 22.0737 202.934 16.2947C202.934 10.5158 206.967 7.95789 210.905 7.95789C214.843 7.95789 218.876 10.5158 218.876 16.2947C218.972 22.0737 214.939 24.6316 210.905 24.6316ZM215.131 16.2947C215.131 12.6947 213.114 10.8 210.809 10.8C208.504 10.8 206.487 12.6 206.487 16.2947C206.487 19.9895 208.504 21.7895 210.809 21.7895C213.114 21.6947 215.131 19.9895 215.131 16.2947Z" fill="white"/>
<path d="M229.731 8.05261C233.669 8.05261 235.206 10.5158 235.206 14.4V24.3473H231.652V15.1579C231.652 13.0737 231.268 10.9895 228.579 10.9895C225.89 10.9895 224.737 13.0737 224.737 15.9158V24.3473H221.184V8.43156H224.737V10.6105C225.698 8.81051 227.522 8.05261 229.731 8.05261Z" fill="white"/>
<path d="M22.5696 0L5.76245 7.86316L8.64367 1.70526H5.1862L0 12.8842L0.384163 13.7368L17.0953 5.87368L10.1803 20.6526L7.01098 13.9263L4.12975 15.2526L9.60408 27H10.8526L23.0498 1.04211L22.5696 0Z" fill="white"/>
</g>
<defs>
<clipPath id="clip0_682_10916">
<rect width="245" height="27" fill="white"/>
</clipPath>
</defs>
</svg>
